# xmcd
#
# Track frame offsets: 
#        182
#        12847
#        25912
#        42650
#        55447
#        70605
#        85697
#        100152
#        115062
#        129222
#        143592
#
# Disc length: 2097 seconds
#
# Revision: 30
# Processed by: cddbd v1.5.2PL0 Copyright (c) Steve Scherf et al.
# Submitted via: ExactAudioCopyFreeDBPlugin 1.0
#
DISCID=87082f0b
DTITLE=LeAnn Rimes - Blue
DYEAR=1996
DGENRE=Country
TTITLE0=Blue
TTITLE1=Hurt Me
TTITLE2=One Way Ticket (Because I Can)
TTITLE3=My Baby
TTITLE4=Honestly
TTITLE5=The Light in Your Eyes
TTITLE6=Talk to Me
TTITLE7=I'll Get Even with You
TTITLE8=Cattle Call
TTITLE9=Good Lookin' Man
TTITLE10=Fade to Blue
EXTD=YEAR: 1996
EXTT0=
EXTT1=
EXTT2=
EXTT3=
EXTT4=
EXTT5=
EXTT6=
EXTT7=
EXTT8=
EXTT9=
EXTT10=
PLAYORDER=
